<svg width="101" height="16" viewBox="0 0 101 16" fill="none" xmlns="http://www.w3.org/2000/svg">
<path d="M91.9521 12.6538L91.7079 12.5171L91.4637 12.6538L87.2111 15.0343L88.1607 10.2541L88.2153 9.97953L88.0098 9.78952L84.4313 6.48052L89.2711 5.90651L89.549 5.87355L89.6663 5.61943L91.7079 1.19364L93.7496 5.61943L93.8668 5.87355L94.1447 5.90651L98.9846 6.48052L95.406 9.78952L95.2006 9.97953L95.2551 10.2541L96.2047 15.0343L91.9521 12.6538Z" stroke="#9378FF"/>
<path d="M86.5136 16L91.7121 13.0901V0L89.2164 5.40999L83.3 6.11166L87.6745 10.1566L86.5136 16Z" fill="#9378FF"/>
<path d="M70.8839 13.0901L65.6855 16L66.8463 10.1566L62.4719 6.11166L68.3883 5.40999L70.8839 0L73.3796 5.40999L79.296 6.11166L74.9215 10.1566L76.0824 16L70.8839 13.0901Z" fill="#9378FF"/>
<path d="M50.06 13.0901L44.8615 16L46.0224 10.1566L41.6479 6.11166L47.5643 5.40999L50.06 0L52.5556 5.40999L58.472 6.11166L54.0976 10.1566L55.2584 16L50.06 13.0901Z" fill="#9378FF"/>
<path d="M29.236 13.0901L24.0375 16L25.1984 10.1566L20.824 6.11166L26.7403 5.40999L29.236 0L31.7317 5.40999L37.648 6.11166L33.2736 10.1566L34.4344 16L29.236 13.0901Z" fill="#9378FF"/>
<path d="M8.41201 13.0901L3.21356 16L4.37442 10.1566L0 6.11166L5.91634 5.40999L8.41201 0L10.9077 5.40999L16.824 6.11166L12.4496 10.1566L13.6105 16L8.41201 13.0901Z" fill="#9378FF"/>
</svg>
